<svg xmlns="http://www.w3.org/2000/svg" viewBox="0 0 120 120" width="32" height="32">
  <rect x="0" y="0" width="9" height="9" rx="1" fill="#91272e"><animate attributeName="opacity" values="0.52;1;0.52" dur="2.1s" begin="-1.38s" repeatCount="indefinite"/></rect>
  <rect x="10" y="0" width="9" height="9" rx="1" fill="#cde9e7"><animate attributeName="opacity" values="0.312;1;0.312" dur="4.95s" begin="-3.38s" repeatCount="indefinite"/></rect>
  <rect x="20" y="0" width="9" height="9" rx="1" fill="#3a2e39"><animate attributeName="opacity" values="0.646;1;0.646" dur="2.35s" begin="-2.11s" repeatCount="indefinite"/></rect>
  <rect x="30" y="0" width="9" height="9" rx="1" fill="#fdfff7"><animate attributeName="opacity" values="0.215;1;0.215" dur="2.87s" begin="-2.53s" repeatCount="indefinite"/></rect>
  <rect x="40" y="0" width="9" height="9" rx="1" fill="#fdfff7"><animate attributeName="opacity" values="0.213;1;0.213" dur="2.8s" begin="-3.25s" repeatCount="indefinite"/></rect>
  <rect x="50" y="0" width="9" height="9" rx="1" fill="#25938f"><animate attributeName="opacity" values="0.472;1;0.472" dur="2.88s" begin="-2.95s" repeatCount="indefinite"/></rect>
  <rect x="60" y="0" width="9" height="9" rx="1" fill="#3a2e39"><animate attributeName="opacity" values="0.605;1;0.605" dur="2.03s" begin="-4.03s" repeatCount="indefinite"/></rect>
  <rect x="70" y="0" width="9" height="9" rx="1" fill="#91272e"><animate attributeName="opacity" values="0.549;1;0.549" dur="3.36s" begin="-0.78s" repeatCount="indefinite"/></rect>
  <rect x="80" y="0" width="9" height="9" rx="1" fill="#3a2e39"><animate attributeName="opacity" values="0.679;1;0.679" dur="3.35s" begin="-0.46s" repeatCount="indefinite"/></rect>
  <rect x="90" y="0" width="9" height="9" rx="1" fill="#fdfff7"><animate attributeName="opacity" values="0.248;1;0.248" dur="5.39s" begin="-3.02s" repeatCount="indefinite"/></rect>
  <rect x="100" y="0" width="9" height="9" rx="1" fill="#3a2e39"><animate attributeName="opacity" values="0.604;1;0.604" dur="4.92s" begin="-2.68s" repeatCount="indefinite"/></rect>
  <rect x="110" y="0" width="9" height="9" rx="1" fill="#3a2e39"><animate attributeName="opacity" values="0.687;1;0.687" dur="3.51s" begin="-2.76s" repeatCount="indefinite"/></rect>
  <rect x="0" y="10" width="9" height="9" rx="1" fill="#3a2e39"><animate attributeName="opacity" values="0.615;1;0.615" dur="4.47s" begin="-4.31s" repeatCount="indefinite"/></rect>
  <rect x="10" y="10" width="9" height="9" rx="1" fill="#25938f"><animate attributeName="opacity" values="0.489;1;0.489" dur="4.82s" begin="-0.23s" repeatCount="indefinite"/></rect>
  <rect x="20" y="10" width="9" height="9" rx="1" fill="#cde9e7"><animate attributeName="opacity" values="0.314;1;0.314" dur="3.16s" begin="-0.4s" repeatCount="indefinite"/></rect>
  <rect x="30" y="10" width="9" height="9" rx="1" fill="#cde9e7"><animate attributeName="opacity" values="0.316;1;0.316" dur="2.4s" begin="-1.39s" repeatCount="indefinite"/></rect>
  <rect x="40" y="10" width="9" height="9" rx="1" fill="#91272e"><animate attributeName="opacity" values="0.518;1;0.518" dur="3.46s" begin="-1.85s" repeatCount="indefinite"/></rect>
  <rect x="50" y="10" width="9" height="9" rx="1" fill="#cde9e7"><animate attributeName="opacity" values="0.305;1;0.305" dur="3.07s" begin="-4.68s" repeatCount="indefinite"/></rect>
  <rect x="60" y="10" width="9" height="9" rx="1" fill="#91272e"><animate attributeName="opacity" values="0.524;1;0.524" dur="4.44s" begin="-0.86s" repeatCount="indefinite"/></rect>
  <rect x="70" y="10" width="9" height="9" rx="1" fill="#91272e"><animate attributeName="opacity" values="0.565;1;0.565" dur="2.65s" begin="-1.9s" repeatCount="indefinite"/></rect>
  <rect x="80" y="10" width="9" height="9" rx="1" fill="#3a2e39"><animate attributeName="opacity" values="0.695;1;0.695" dur="4.56s" begin="-2.78s" repeatCount="indefinite"/></rect>
  <rect x="90" y="10" width="9" height="9" rx="1" fill="#91272e"><animate attributeName="opacity" values="0.542;1;0.542" dur="5.37s" begin="-3.88s" repeatCount="indefinite"/></rect>
  <rect x="100" y="10" width="9" height="9" rx="1" fill="#cde9e7"><animate attributeName="opacity" values="0.315;1;0.315" dur="2.13s" begin="-1.58s" repeatCount="indefinite"/></rect>
  <rect x="110" y="10" width="9" height="9" rx="1" fill="#cde9e7"><animate attributeName="opacity" values="0.334;1;0.334" dur="2.84s" begin="-4.71s" repeatCount="indefinite"/></rect>
  <rect x="0" y="20" width="9" height="9" rx="1" fill="#3a2e39"><animate attributeName="opacity" values="0.638;1;0.638" dur="3.26s" begin="-3.28s" repeatCount="indefinite"/></rect>
  <rect x="10" y="20" width="9" height="9" rx="1" fill="#cde9e7"><animate attributeName="opacity" values="0.398;1;0.398" dur="5.66s" begin="-2.29s" repeatCount="indefinite"/></rect>
  <rect x="20" y="20" width="9" height="9" rx="1" fill="#cde9e7"><animate attributeName="opacity" values="0.332;1;0.332" dur="2.99s" begin="-2.81s" repeatCount="indefinite"/></rect>
  <rect x="30" y="20" width="9" height="9" rx="1" fill="#cde9e7"><animate attributeName="opacity" values="0.331;1;0.331" dur="4.34s" begin="-4.49s" repeatCount="indefinite"/></rect>
  <rect x="40" y="20" width="9" height="9" rx="1" fill="#cde9e7"><animate attributeName="opacity" values="0.4;1;0.4" dur="2.88s" begin="-4.99s" repeatCount="indefinite"/></rect>
  <rect x="50" y="20" width="9" height="9" rx="1" fill="#25938f"><animate attributeName="opacity" values="0.455;1;0.455" dur="2.36s" begin="-0.24s" repeatCount="indefinite"/></rect>
  <rect x="60" y="20" width="9" height="9" rx="1" fill="#fdfff7"><animate attributeName="opacity" values="0.255;1;0.255" dur="4.51s" begin="-3.96s" repeatCount="indefinite"/></rect>
  <rect x="70" y="20" width="9" height="9" rx="1" fill="#25938f"><animate attributeName="opacity" values="0.411;1;0.411" dur="2.25s" begin="-1.91s" repeatCount="indefinite"/></rect>
  <rect x="80" y="20" width="9" height="9" rx="1" fill="#3a2e39"><animate attributeName="opacity" values="0.698;1;0.698" dur="4.12s" begin="-4.86s" repeatCount="indefinite"/></rect>
  <rect x="90" y="20" width="9" height="9" rx="1" fill="#3a2e39"><animate attributeName="opacity" values="0.63;1;0.63" dur="2.05s" begin="-3.6s" repeatCount="indefinite"/></rect>
  <rect x="100" y="20" width="9" height="9" rx="1" fill="#91272e"><animate attributeName="opacity" values="0.541;1;0.541" dur="4.15s" begin="-1.33s" repeatCount="indefinite"/></rect>
  <rect x="110" y="20" width="9" height="9" rx="1" fill="#91272e"><animate attributeName="opacity" values="0.52;1;0.52" dur="2.45s" begin="-2.17s" repeatCount="indefinite"/></rect>
  <rect x="0" y="30" width="9" height="9" rx="1" fill="#25938f"><animate attributeName="opacity" values="0.427;1;0.427" dur="5.82s" begin="-4.38s" repeatCount="indefinite"/></rect>
  <rect x="10" y="30" width="9" height="9" rx="1" fill="#cde9e7"><animate attributeName="opacity" values="0.332;1;0.332" dur="4.0s" begin="-0.89s" repeatCount="indefinite"/></rect>
  <rect x="20" y="30" width="9" height="9" rx="1" fill="#3a2e39"><animate attributeName="opacity" values="0.656;1;0.656" dur="5.48s" begin="-1.49s" repeatCount="indefinite"/></rect>
  <rect x="30" y="30" width="9" height="9" rx="1" fill="#91272e"><animate attributeName="opacity" values="0.519;1;0.519" dur="4.44s" begin="-0.76s" repeatCount="indefinite"/></rect>
  <rect x="40" y="30" width="9" height="9" rx="1" fill="#91272e"><animate attributeName="opacity" values="0.581;1;0.581" dur="4.16s" begin="-3.89s" repeatCount="indefinite"/></rect>
  <rect x="50" y="30" width="9" height="9" rx="1" fill="#25938f"><animate attributeName="opacity" values="0.465;1;0.465" dur="2.0s" begin="-1.62s" repeatCount="indefinite"/></rect>
  <rect x="60" y="30" width="9" height="9" rx="1" fill="#fdfff7"><animate attributeName="opacity" values="0.21;1;0.21" dur="5.72s" begin="-4.39s" repeatCount="indefinite"/></rect>
  <rect x="70" y="30" width="9" height="9" rx="1" fill="#3a2e39"><animate attributeName="opacity" values="0.616;1;0.616" dur="3.23s" begin="-0.29s" repeatCount="indefinite"/></rect>
  <rect x="80" y="30" width="9" height="9" rx="1" fill="#3a2e39"><animate attributeName="opacity" values="0.639;1;0.639" dur="5.79s" begin="-0.43s" repeatCount="indefinite"/></rect>
  <rect x="90" y="30" width="9" height="9" rx="1" fill="#25938f"><animate attributeName="opacity" values="0.443;1;0.443" dur="2.28s" begin="-3.8s" repeatCount="indefinite"/></rect>
  <rect x="100" y="30" width="9" height="9" rx="1" fill="#91272e"><animate attributeName="opacity" values="0.583;1;0.583" dur="2.51s" begin="-2.38s" repeatCount="indefinite"/></rect>
  <rect x="110" y="30" width="9" height="9" rx="1" fill="#25938f"><animate attributeName="opacity" values="0.475;1;0.475" dur="3.06s" begin="-4.36s" repeatCount="indefinite"/></rect>
  <rect x="0" y="40" width="9" height="9" rx="1" fill="#25938f"><animate attributeName="opacity" values="0.412;1;0.412" dur="2.85s" begin="-2.7s" repeatCount="indefinite"/></rect>
  <rect x="10" y="40" width="9" height="9" rx="1" fill="#91272e"><animate attributeName="opacity" values="0.565;1;0.565" dur="2.8s" begin="-1.56s" repeatCount="indefinite"/></rect>
  <rect x="20" y="40" width="9" height="9" rx="1" fill="#3a2e39"><animate attributeName="opacity" values="0.698;1;0.698" dur="4.6s" begin="-2.19s" repeatCount="indefinite"/></rect>
  <rect x="30" y="40" width="9" height="9" rx="1" fill="#25938f"><animate attributeName="opacity" values="0.459;1;0.459" dur="2.48s" begin="-1.12s" repeatCount="indefinite"/></rect>
  <rect x="40" y="40" width="9" height="9" rx="1" fill="#cde9e7"><animate attributeName="opacity" values="0.369;1;0.369" dur="4.35s" begin="-1.15s" repeatCount="indefinite"/></rect>
  <rect x="50" y="40" width="9" height="9" rx="1" fill="#cde9e7"><animate attributeName="opacity" values="0.31;1;0.31" dur="2.28s" begin="-3.16s" repeatCount="indefinite"/></rect>
  <rect x="60" y="40" width="9" height="9" rx="1" fill="#cde9e7"><animate attributeName="opacity" values="0.314;1;0.314" dur="5.62s" begin="-4.3s" repeatCount="indefinite"/></rect>
  <rect x="70" y="40" width="9" height="9" rx="1" fill="#fdfff7"><animate attributeName="opacity" values="0.235;1;0.235" dur="2.95s" begin="-3.34s" repeatCount="indefinite"/></rect>
  <rect x="80" y="40" width="9" height="9" rx="1" fill="#cde9e7"><animate attributeName="opacity" values="0.307;1;0.307" dur="2.53s" begin="-4.68s" repeatCount="indefinite"/></rect>
  <rect x="90" y="40" width="9" height="9" rx="1" fill="#25938f"><animate attributeName="opacity" values="0.486;1;0.486" dur="3.89s" begin="-3.92s" repeatCount="indefinite"/></rect>
  <rect x="100" y="40" width="9" height="9" rx="1" fill="#3a2e39"><animate attributeName="opacity" values="0.604;1;0.604" dur="2.76s" begin="-0.48s" repeatCount="indefinite"/></rect>
  <rect x="110" y="40" width="9" height="9" rx="1" fill="#25938f"><animate attributeName="opacity" values="0.416;1;0.416" dur="3.69s" begin="-2.34s" repeatCount="indefinite"/></rect>
  <rect x="0" y="50" width="9" height="9" rx="1" fill="#91272e"><animate attributeName="opacity" values="0.565;1;0.565" dur="4.69s" begin="-4.92s" repeatCount="indefinite"/></rect>
  <rect x="10" y="50" width="9" height="9" rx="1" fill="#fdfff7"><animate attributeName="opacity" values="0.249;1;0.249" dur="3.61s" begin="-1.7s" repeatCount="indefinite"/></rect>
  <rect x="20" y="50" width="9" height="9" rx="1" fill="#3a2e39"><animate attributeName="opacity" values="0.631;1;0.631" dur="2.99s" begin="-0.95s" repeatCount="indefinite"/></rect>
  <rect x="30" y="50" width="9" height="9" rx="1" fill="#25938f"><animate attributeName="opacity" values="0.424;1;0.424" dur="3.69s" begin="-1.39s" repeatCount="indefinite"/></rect>
  <rect x="40" y="50" width="9" height="9" rx="1" fill="#cde9e7"><animate attributeName="opacity" values="0.325;1;0.325" dur="5.69s" begin="-2.22s" repeatCount="indefinite"/></rect>
  <rect x="50" y="50" width="9" height="9" rx="1" fill="#3a2e39"><animate attributeName="opacity" values="0.631;1;0.631" dur="4.2s" begin="-0.25s" repeatCount="indefinite"/></rect>
  <rect x="60" y="50" width="9" height="9" rx="1" fill="#3a2e39"><animate attributeName="opacity" values="0.7;1;0.7" dur="5.34s" begin="-4.84s" repeatCount="indefinite"/></rect>
  <rect x="70" y="50" width="9" height="9" rx="1" fill="#3a2e39"><animate attributeName="opacity" values="0.663;1;0.663" dur="5.39s" begin="-0.83s" repeatCount="indefinite"/></rect>
  <rect x="80" y="50" width="9" height="9" rx="1" fill="#25938f"><animate attributeName="opacity" values="0.443;1;0.443" dur="2.85s" begin="-2.01s" repeatCount="indefinite"/></rect>
  <rect x="90" y="50" width="9" height="9" rx="1" fill="#fdfff7"><animate attributeName="opacity" values="0.229;1;0.229" dur="3.52s" begin="-4.93s" repeatCount="indefinite"/></rect>
  <rect x="100" y="50" width="9" height="9" rx="1" fill="#cde9e7"><animate attributeName="opacity" values="0.333;1;0.333" dur="5.14s" begin="-2.28s" repeatCount="indefinite"/></rect>
  <rect x="110" y="50" width="9" height="9" rx="1" fill="#25938f"><animate attributeName="opacity" values="0.412;1;0.412" dur="5.83s" begin="-4.98s" repeatCount="indefinite"/></rect>
  <rect x="0" y="60" width="9" height="9" rx="1" fill="#25938f"><animate attributeName="opacity" values="0.478;1;0.478" dur="4.87s" begin="-0.77s" repeatCount="indefinite"/></rect>
  <rect x="10" y="60" width="9" height="9" rx="1" fill="#cde9e7"><animate attributeName="opacity" values="0.348;1;0.348" dur="5.87s" begin="-2.9s" repeatCount="indefinite"/></rect>
  <rect x="20" y="60" width="9" height="9" rx="1" fill="#25938f"><animate attributeName="opacity" values="0.471;1;0.471" dur="4.99s" begin="-0.29s" repeatCount="indefinite"/></rect>
  <rect x="30" y="60" width="9" height="9" rx="1" fill="#25938f"><animate attributeName="opacity" values="0.492;1;0.492" dur="4.01s" begin="-4.26s" repeatCount="indefinite"/></rect>
  <rect x="40" y="60" width="9" height="9" rx="1" fill="#fdfff7"><animate attributeName="opacity" values="0.279;1;0.279" dur="5.84s" begin="-0.4s" repeatCount="indefinite"/></rect>
  <rect x="50" y="60" width="9" height="9" rx="1" fill="#fdfff7"><animate attributeName="opacity" values="0.293;1;0.293" dur="4.38s" begin="-3.38s" repeatCount="indefinite"/></rect>
  <rect x="60" y="60" width="9" height="9" rx="1" fill="#cde9e7"><animate attributeName="opacity" values="0.318;1;0.318" dur="2.48s" begin="-4.45s" repeatCount="indefinite"/></rect>
  <rect x="70" y="60" width="9" height="9" rx="1" fill="#cde9e7"><animate attributeName="opacity" values="0.323;1;0.323" dur="4.38s" begin="-3.1s" repeatCount="indefinite"/></rect>
  <rect x="80" y="60" width="9" height="9" rx="1" fill="#25938f"><animate attributeName="opacity" values="0.41;1;0.41" dur="4.33s" begin="-2.61s" repeatCount="indefinite"/></rect>
  <rect x="90" y="60" width="9" height="9" rx="1" fill="#3a2e39"><animate attributeName="opacity" values="0.667;1;0.667" dur="2.82s" begin="-3.58s" repeatCount="indefinite"/></rect>
  <rect x="100" y="60" width="9" height="9" rx="1" fill="#cde9e7"><animate attributeName="opacity" values="0.319;1;0.319" dur="3.58s" begin="-3.36s" repeatCount="indefinite"/></rect>
  <rect x="110" y="60" width="9" height="9" rx="1" fill="#cde9e7"><animate attributeName="opacity" values="0.35;1;0.35" dur="3.26s" begin="-3.76s" repeatCount="indefinite"/></rect>
  <rect x="0" y="70" width="9" height="9" rx="1" fill="#fdfff7"><animate attributeName="opacity" values="0.236;1;0.236" dur="3.83s" begin="-4.99s" repeatCount="indefinite"/></rect>
  <rect x="10" y="70" width="9" height="9" rx="1" fill="#3a2e39"><animate attributeName="opacity" values="0.698;1;0.698" dur="2.29s" begin="-1.07s" repeatCount="indefinite"/></rect>
  <rect x="20" y="70" width="9" height="9" rx="1" fill="#cde9e7"><animate attributeName="opacity" values="0.333;1;0.333" dur="5.73s" begin="-4.4s" repeatCount="indefinite"/></rect>
  <rect x="30" y="70" width="9" height="9" rx="1" fill="#3a2e39"><animate attributeName="opacity" values="0.64;1;0.64" dur="3.48s" begin="-0.79s" repeatCount="indefinite"/></rect>
  <rect x="40" y="70" width="9" height="9" rx="1" fill="#3a2e39"><animate attributeName="opacity" values="0.617;1;0.617" dur="4.81s" begin="-3.06s" repeatCount="indefinite"/></rect>
  <rect x="50" y="70" width="9" height="9" rx="1" fill="#3a2e39"><animate attributeName="opacity" values="0.694;1;0.694" dur="4.62s" begin="-0.04s" repeatCount="indefinite"/></rect>
  <rect x="60" y="70" width="9" height="9" rx="1" fill="#3a2e39"><animate attributeName="opacity" values="0.609;1;0.609" dur="3.2s" begin="-3.32s" repeatCount="indefinite"/></rect>
  <rect x="70" y="70" width="9" height="9" rx="1" fill="#3a2e39"><animate attributeName="opacity" values="0.669;1;0.669" dur="2.54s" begin="-0.58s" repeatCount="indefinite"/></rect>
  <rect x="80" y="70" width="9" height="9" rx="1" fill="#fdfff7"><animate attributeName="opacity" values="0.254;1;0.254" dur="4.21s" begin="-1.36s" repeatCount="indefinite"/></rect>
  <rect x="90" y="70" width="9" height="9" rx="1" fill="#91272e"><animate attributeName="opacity" values="0.502;1;0.502" dur="4.87s" begin="-1.02s" repeatCount="indefinite"/></rect>
  <rect x="100" y="70" width="9" height="9" rx="1" fill="#91272e"><animate attributeName="opacity" values="0.517;1;0.517" dur="3.06s" begin="-2.44s" repeatCount="indefinite"/></rect>
  <rect x="110" y="70" width="9" height="9" rx="1" fill="#3a2e39"><animate attributeName="opacity" values="0.653;1;0.653" dur="5.38s" begin="-0.46s" repeatCount="indefinite"/></rect>
  <rect x="0" y="80" width="9" height="9" rx="1" fill="#25938f"><animate attributeName="opacity" values="0.412;1;0.412" dur="3.11s" begin="-0.02s" repeatCount="indefinite"/></rect>
  <rect x="10" y="80" width="9" height="9" rx="1" fill="#91272e"><animate attributeName="opacity" values="0.586;1;0.586" dur="4.55s" begin="-1.31s" repeatCount="indefinite"/></rect>
  <rect x="20" y="80" width="9" height="9" rx="1" fill="#91272e"><animate attributeName="opacity" values="0.571;1;0.571" dur="4.21s" begin="-2.14s" repeatCount="indefinite"/></rect>
  <rect x="30" y="80" width="9" height="9" rx="1" fill="#fdfff7"><animate attributeName="opacity" values="0.205;1;0.205" dur="2.3s" begin="-4.42s" repeatCount="indefinite"/></rect>
  <rect x="40" y="80" width="9" height="9" rx="1" fill="#3a2e39"><animate attributeName="opacity" values="0.652;1;0.652" dur="4.18s" begin="-4.17s" repeatCount="indefinite"/></rect>
  <rect x="50" y="80" width="9" height="9" rx="1" fill="#25938f"><animate attributeName="opacity" values="0.491;1;0.491" dur="2.59s" begin="-0.64s" repeatCount="indefinite"/></rect>
  <rect x="60" y="80" width="9" height="9" rx="1" fill="#cde9e7"><animate attributeName="opacity" values="0.354;1;0.354" dur="5.6s" begin="-3.98s" repeatCount="indefinite"/></rect>
  <rect x="70" y="80" width="9" height="9" rx="1" fill="#3a2e39"><animate attributeName="opacity" values="0.63;1;0.63" dur="5.6s" begin="-1.05s" repeatCount="indefinite"/></rect>
  <rect x="80" y="80" width="9" height="9" rx="1" fill="#cde9e7"><animate attributeName="opacity" values="0.325;1;0.325" dur="2.41s" begin="-3.9s" repeatCount="indefinite"/></rect>
  <rect x="90" y="80" width="9" height="9" rx="1" fill="#3a2e39"><animate attributeName="opacity" values="0.642;1;0.642" dur="3.63s" begin="-3.1s" repeatCount="indefinite"/></rect>
  <rect x="100" y="80" width="9" height="9" rx="1" fill="#fdfff7"><animate attributeName="opacity" values="0.277;1;0.277" dur="5.72s" begin="-4.32s" repeatCount="indefinite"/></rect>
  <rect x="110" y="80" width="9" height="9" rx="1" fill="#3a2e39"><animate attributeName="opacity" values="0.688;1;0.688" dur="5.24s" begin="-4.41s" repeatCount="indefinite"/></rect>
  <rect x="0" y="90" width="9" height="9" rx="1" fill="#fdfff7"><animate attributeName="opacity" values="0.212;1;0.212" dur="4.95s" begin="-1.66s" repeatCount="indefinite"/></rect>
  <rect x="10" y="90" width="9" height="9" rx="1" fill="#3a2e39"><animate attributeName="opacity" values="0.665;1;0.665" dur="5.21s" begin="-4.32s" repeatCount="indefinite"/></rect>
  <rect x="20" y="90" width="9" height="9" rx="1" fill="#3a2e39"><animate attributeName="opacity" values="0.605;1;0.605" dur="3.07s" begin="-3.94s" repeatCount="indefinite"/></rect>
  <rect x="30" y="90" width="9" height="9" rx="1" fill="#fdfff7"><animate attributeName="opacity" values="0.254;1;0.254" dur="5.49s" begin="-4.29s" repeatCount="indefinite"/></rect>
  <rect x="40" y="90" width="9" height="9" rx="1" fill="#cde9e7"><animate attributeName="opacity" values="0.311;1;0.311" dur="5.27s" begin="-2.3s" repeatCount="indefinite"/></rect>
  <rect x="50" y="90" width="9" height="9" rx="1" fill="#cde9e7"><animate attributeName="opacity" values="0.353;1;0.353" dur="5.18s" begin="-1.14s" repeatCount="indefinite"/></rect>
  <rect x="60" y="90" width="9" height="9" rx="1" fill="#fdfff7"><animate attributeName="opacity" values="0.212;1;0.212" dur="2.77s" begin="-1.64s" repeatCount="indefinite"/></rect>
  <rect x="70" y="90" width="9" height="9" rx="1" fill="#3a2e39"><animate attributeName="opacity" values="0.632;1;0.632" dur="5.87s" begin="-1.4s" repeatCount="indefinite"/></rect>
  <rect x="80" y="90" width="9" height="9" rx="1" fill="#91272e"><animate attributeName="opacity" values="0.521;1;0.521" dur="3.6s" begin="-4.91s" repeatCount="indefinite"/></rect>
  <rect x="90" y="90" width="9" height="9" rx="1" fill="#25938f"><animate attributeName="opacity" values="0.468;1;0.468" dur="5.76s" begin="-0.58s" repeatCount="indefinite"/></rect>
  <rect x="100" y="90" width="9" height="9" rx="1" fill="#3a2e39"><animate attributeName="opacity" values="0.685;1;0.685" dur="2.71s" begin="-4.81s" repeatCount="indefinite"/></rect>
  <rect x="110" y="90" width="9" height="9" rx="1" fill="#cde9e7"><animate attributeName="opacity" values="0.333;1;0.333" dur="2.43s" begin="-2.17s" repeatCount="indefinite"/></rect>
  <rect x="0" y="100" width="9" height="9" rx="1" fill="#91272e"><animate attributeName="opacity" values="0.564;1;0.564" dur="3.25s" begin="-3.03s" repeatCount="indefinite"/></rect>
  <rect x="10" y="100" width="9" height="9" rx="1" fill="#25938f"><animate attributeName="opacity" values="0.456;1;0.456" dur="3.54s" begin="-2.88s" repeatCount="indefinite"/></rect>
  <rect x="20" y="100" width="9" height="9" rx="1" fill="#cde9e7"><animate attributeName="opacity" values="0.327;1;0.327" dur="4.84s" begin="-0.01s" repeatCount="indefinite"/></rect>
  <rect x="30" y="100" width="9" height="9" rx="1" fill="#3a2e39"><animate attributeName="opacity" values="0.663;1;0.663" dur="4.15s" begin="-3.6s" repeatCount="indefinite"/></rect>
  <rect x="40" y="100" width="9" height="9" rx="1" fill="#91272e"><animate attributeName="opacity" values="0.571;1;0.571" dur="4.68s" begin="-1.82s" repeatCount="indefinite"/></rect>
  <rect x="50" y="100" width="9" height="9" rx="1" fill="#fdfff7"><animate attributeName="opacity" values="0.235;1;0.235" dur="4.66s" begin="-1.65s" repeatCount="indefinite"/></rect>
  <rect x="60" y="100" width="9" height="9" rx="1" fill="#cde9e7"><animate attributeName="opacity" values="0.357;1;0.357" dur="5.39s" begin="-3.6s" repeatCount="indefinite"/></rect>
  <rect x="70" y="100" width="9" height="9" rx="1" fill="#cde9e7"><animate attributeName="opacity" values="0.35;1;0.35" dur="3.24s" begin="-2.04s" repeatCount="indefinite"/></rect>
  <rect x="80" y="100" width="9" height="9" rx="1" fill="#25938f"><animate attributeName="opacity" values="0.401;1;0.401" dur="3.18s" begin="-0.64s" repeatCount="indefinite"/></rect>
  <rect x="90" y="100" width="9" height="9" rx="1" fill="#25938f"><animate attributeName="opacity" values="0.41;1;0.41" dur="5.76s" begin="-3.39s" repeatCount="indefinite"/></rect>
  <rect x="100" y="100" width="9" height="9" rx="1" fill="#3a2e39"><animate attributeName="opacity" values="0.651;1;0.651" dur="4.46s" begin="-1.5s" repeatCount="indefinite"/></rect>
  <rect x="110" y="100" width="9" height="9" rx="1" fill="#25938f"><animate attributeName="opacity" values="0.474;1;0.474" dur="2.0s" begin="-1.43s" repeatCount="indefinite"/></rect>
  <rect x="0" y="110" width="9" height="9" rx="1" fill="#25938f"><animate attributeName="opacity" values="0.415;1;0.415" dur="4.32s" begin="-3.27s" repeatCount="indefinite"/></rect>
  <rect x="10" y="110" width="9" height="9" rx="1" fill="#25938f"><animate attributeName="opacity" values="0.432;1;0.432" dur="3.77s" begin="-1.07s" repeatCount="indefinite"/></rect>
  <rect x="20" y="110" width="9" height="9" rx="1" fill="#25938f"><animate attributeName="opacity" values="0.437;1;0.437" dur="5.6s" begin="-3.98s" repeatCount="indefinite"/></rect>
  <rect x="30" y="110" width="9" height="9" rx="1" fill="#fdfff7"><animate attributeName="opacity" values="0.285;1;0.285" dur="2.34s" begin="-2.58s" repeatCount="indefinite"/></rect>
  <rect x="40" y="110" width="9" height="9" rx="1" fill="#91272e"><animate attributeName="opacity" values="0.516;1;0.516" dur="3.34s" begin="-4.09s" repeatCount="indefinite"/></rect>
  <rect x="50" y="110" width="9" height="9" rx="1" fill="#91272e"><animate attributeName="opacity" values="0.576;1;0.576" dur="4.69s" begin="-1.12s" repeatCount="indefinite"/></rect>
  <rect x="60" y="110" width="9" height="9" rx="1" fill="#fdfff7"><animate attributeName="opacity" values="0.3;1;0.3" dur="2.1s" begin="-1.22s" repeatCount="indefinite"/></rect>
  <rect x="70" y="110" width="9" height="9" rx="1" fill="#25938f"><animate attributeName="opacity" values="0.438;1;0.438" dur="5.4s" begin="-0.36s" repeatCount="indefinite"/></rect>
  <rect x="80" y="110" width="9" height="9" rx="1" fill="#25938f"><animate attributeName="opacity" values="0.407;1;0.407" dur="4.52s" begin="-0.97s" repeatCount="indefinite"/></rect>
  <rect x="90" y="110" width="9" height="9" rx="1" fill="#91272e"><animate attributeName="opacity" values="0.548;1;0.548" dur="3.98s" begin="-1.22s" repeatCount="indefinite"/></rect>
  <rect x="100" y="110" width="9" height="9" rx="1" fill="#91272e"><animate attributeName="opacity" values="0.528;1;0.528" dur="2.02s" begin="-3.75s" repeatCount="indefinite"/></rect>
  <rect x="110" y="110" width="9" height="9" rx="1" fill="#91272e"><animate attributeName="opacity" values="0.585;1;0.585" dur="2.43s" begin="-2.13s" repeatCount="indefinite"/></rect>
</svg>